<svg width="60" height="53" viewBox="0 0 60 53" fill="none" xmlns="http://www.w3.org/2000/svg">
<path d="M20 35V40C20 40.663 19.7366 41.2989 19.2678 41.7678C18.7989 42.2366 18.163 42.5 17.5 42.5H12.5C11.837 42.5 11.2011 42.2366 10.7322 41.7678C10.2634 41.2989 10 40.663 10 40V35C10 34.337 10.2634 33.7011 10.7322 33.2322C11.2011 32.7634 11.837 32.5 12.5 32.5H17.5C18.163 32.5 18.7989 32.7634 19.2678 33.2322C19.7366 33.7011 20 34.337 20 35ZM47.5 32.5H42.5C41.837 32.5 41.2011 32.7634 40.7322 33.2322C40.2634 33.7011 40 34.337 40 35V40C40 40.663 40.2634 41.2989 40.7322 41.7678C41.2011 42.2366 41.837 42.5 42.5 42.5H47.5C48.163 42.5 48.7989 42.2366 49.2678 41.7678C49.7366 41.2989 50 40.663 50 40V35C50 34.337 49.7366 33.7011 49.2678 33.2322C48.7989 32.7634 48.163 32.5 47.5 32.5Z" fill="#FFD460"/>
<path d="M50 12.5H10C7.23858 12.5 5 14.7386 5 17.5V32.5C5 35.2614 7.23858 37.5 10 37.5H50C52.7614 37.5 55 35.2614 55 32.5V17.5C55 14.7386 52.7614 12.5 50 12.5Z" fill="#EA5455"/>
<path d="M35 27.5C40.5228 27.5 45 23.0228 45 17.5C45 11.9772 40.5228 7.5 35 7.5C29.4772 7.5 25 11.9772 25 17.5C25 23.0228 29.4772 27.5 35 27.5Z" fill="#FFD460"/>
</svg>
